HIERARCHY
ROOT hip
{
	OFFSET 0.000000 0.000000 0.000000 
	CHANNELS 6 Xposition Yposition Zposition Xrotation Zrotation Yrotation
	JOINT abdomen
	{
		OFFSET 0.000000 3.402643 0.000000 
		CHANNELS 3 Xrotation Zrotation Yrotation
		JOINT chest
		{
			OFFSET 0.000000 8.438565 -0.680529 
			CHANNELS 3 Xrotation Zrotation Yrotation
			JOINT neck
			{
				OFFSET 0.000000 10.207942 -0.272212 
				CHANNELS 3 Xrotation Zrotation Yrotation
				JOINT head
				{
					OFFSET 0.000000 3.130431 0.000000 
					CHANNELS 3 Xrotation Zrotation Yrotation
					End Site
					{
						OFFSET 0.000000 3.130435 0.000000 
					}
				}
			}
			JOINT lCollar
			{
				OFFSET 3.470700 6.669187 -0.816635 
				CHANNELS 3 Yrotation Zrotation Xrotation
				JOINT lShldr
				{
					OFFSET 3.198488 0.000000 0.000000 
					CHANNELS 3 Zrotation Yrotation Xrotation
					JOINT lForeArm
					{
						OFFSET 10.139888 0.000000 0.000000 
						CHANNELS 3 Yrotation Zrotation Xrotation
						JOINT lHand
						{
							OFFSET 8.370511 0.000000 0.000000 
							CHANNELS 3 Zrotation Yrotation Xrotation
							End Site
							{
								OFFSET 4.083176 0.000000 0.000000 
							}
						}
					}
				}
			}
			JOINT rCollar
			{
				OFFSET -3.470700 6.669187 -0.816635 
				CHANNELS 3 Yrotation Zrotation Xrotation
				JOINT rShldr
				{
					OFFSET -3.198488 0.000000 0.000000 
					CHANNELS 3 Zrotation Yrotation Xrotation
					JOINT rForeArm
					{
						OFFSET -10.139888 0.000000 0.000000 
						CHANNELS 3 Yrotation Zrotation Xrotation
						JOINT rHand
						{
							OFFSET -8.370511 0.000000 0.000000 
							CHANNELS 3 Zrotation Yrotation Xrotation
							End Site
							{
								OFFSET -4.083176 0.000000 0.000000 
							}
						}
					}
				}
			}
		}
	}
	JOINT lThigh
	{
		OFFSET 5.308129 -1.633274 1.361059 
		CHANNELS 3 Xrotation Zrotation Yrotation
		JOINT lShin
		{
			OFFSET -2.041588 -20.007561 0.000000 
			CHANNELS 3 Xrotation Zrotation Yrotation
			JOINT lFoot
			{
				OFFSET 0.000000 -19.190928 -1.224953 
				CHANNELS 3 Xrotation Yrotation Zrotation
				End Site
				{
					OFFSET 0.000000 -2.449906 4.627600 
				}
			}
		}
	}
	JOINT rThigh
	{
		OFFSET -5.308129 -1.633274 1.361059 
		CHANNELS 3 Xrotation Zrotation Yrotation
		JOINT rShin
		{
			OFFSET 2.041588 -20.007561 0.000000 
			CHANNELS 3 Xrotation Zrotation Yrotation
			JOINT rFoot
			{
				OFFSET 0.000000 -19.190928 -1.224953 
				CHANNELS 3 Xrotation Yrotation Zrotation
				End Site
				{
					OFFSET 0.000000 -2.449906 4.627600 
				}
			}
		}
	}
}
MOTION
Frames: 16
Frame Time: 0.033333
-65.792397 46.695354 39.521778 -4.834308 0.661700 18.195995 0.000000 0.000000 0.000000 10.071585 1.442280 4.191854 12.965939 -4.104907 45.765636 -7.967143 5.767509 33.600578 1.286015 -12.227581 12.339490 -59.628315 9.396142 33.696419 -91.098938 10.750444 2.943918 8.173571 3.804239 24.979788 6.856204 22.121904 12.652864 38.433636 -24.614332 21.950756 81.914719 -7.821687 2.967873 -27.949175 -1.385058 11.301132 -3.525464 17.539577 13.679773 30.064301 -2.278306 13.837700 -13.759614 1.903190 -15.631240 11.781544 -21.380398 -13.181662 -2.957555 -2.097568 -28.646738 12.552494 2.374607 21.566589 
-64.805542 48.408455 38.819828 -2.832071 -0.302365 18.501286 0.000000 0.000000 0.000000 8.995871 1.118882 4.347198 11.611615 -5.059541 46.567829 -8.313314 5.523321 34.300026 1.595474 -11.106668 10.889736 -60.927349 14.727621 34.410816 -96.313934 12.179410 2.947193 8.390758 5.042528 24.528631 7.705632 20.902878 11.074044 42.024536 -27.320797 23.587769 85.482315 -8.712576 2.974614 -28.547892 -1.845297 10.932524 -0.880708 15.529339 15.205635 18.164183 -5.514672 16.596130 -6.539210 0.586763 -10.261765 9.233735 -18.821821 -11.962865 -3.104936 -0.215913 -26.624008 15.096187 2.152256 16.149996 
-63.915962 50.001621 37.980835 -1.376994 0.439326 20.966000 0.000000 0.000000 0.000000 9.111385 -0.202491 3.561241 11.278695 -6.162929 46.167385 -8.910188 6.363334 34.647743 0.695676 -11.049030 11.238434 -60.598026 16.331583 33.786572 -99.318535 12.543694 2.980884 10.447426 6.378767 19.615730 6.709751 19.690777 11.463480 46.447540 -27.781752 24.777218 88.512672 -9.308335 2.985518 -28.609568 -3.006504 10.748617 -4.013357 14.953462 14.786199 19.164537 -7.811895 9.354159 4.369664 -0.251369 -6.837266 9.236965 -16.454468 -14.300122 -3.505215 4.469862 -20.118372 14.258356 1.382819 11.078779 
-63.138752 51.333164 36.947289 0.615326 0.986271 24.366226 0.000000 0.000000 0.000000 9.327530 -0.973289 2.750159 11.172667 -6.581739 44.613758 -8.253690 5.150917 34.516094 -0.189478 -12.245632 11.736867 -59.170925 16.384569 31.568991 -100.706322 12.076066 3.031861 11.026699 6.301958 16.639875 5.737094 17.849909 12.104503 50.387547 -27.939383 27.017664 91.622055 -10.280284 2.989658 -27.113501 -3.482594 11.819193 -5.253340 13.668459 12.031205 15.730839 -8.388643 -5.316734 14.684953 -0.764086 -5.797695 3.036868 -15.683692 -13.483210 6.228868 7.421690 -11.086658 14.656715 1.086747 8.532652 
-62.239353 51.838676 35.925694 2.716022 1.687557 27.912329 0.000000 0.000000 0.000000 9.494371 -1.223251 2.353870 11.422344 -7.390616 43.058674 -9.068145 4.011034 33.889774 -0.724601 -13.531064 11.876775 -57.669498 15.198192 30.477934 -102.816360 12.242839 3.053170 11.389998 8.011569 16.327703 5.297096 16.011862 12.378237 53.895752 -29.005060 29.073267 95.862976 -11.337342 2.998201 -27.296213 -0.019238 15.024003 -7.206471 13.015986 9.854318 13.692120 -7.664999 -16.198908 20.597147 -2.131124 -11.642022 -0.147799 -14.995737 -12.070382 7.621947 7.852033 -7.470531 14.294785 0.647648 5.320858 
-61.187305 51.862709 35.020752 3.649504 3.528006 30.137165 0.000000 0.000000 0.000000 10.417190 -2.093848 2.359190 12.754929 -8.348423 42.699657 -9.947973 3.500083 33.143093 -0.013164 -14.136873 13.349866 -57.672295 12.219782 30.081030 -103.876259 12.184477 3.078730 13.986920 7.718543 16.924265 5.416044 14.006761 13.982187 56.059097 -29.119995 31.556194 99.929100 -12.691167 2.982332 -26.186184 2.499926 19.900017 -6.735201 12.706100 9.784966 15.347225 -6.711994 -19.304569 20.857155 -2.600677 -13.963128 -1.924649 -15.841432 -10.800496 8.900033 7.201683 -4.129959 12.490721 0.426044 3.990990 
-60.277206 51.391933 34.116570 4.534702 4.371093 30.903458 0.000000 0.000000 0.000000 11.007547 -2.597862 2.775742 13.605147 -8.870646 43.292339 -10.416531 3.444202 32.847191 1.276552 -14.781289 14.443470 -57.701855 10.471231 28.434912 -105.945206 12.144056 3.111849 14.096680 6.894228 18.882616 6.200799 11.890151 15.142545 57.831600 -27.891083 34.895039 103.585335 -14.168614 2.952628 -26.413403 3.373222 24.257387 -6.375425 14.710783 10.870823 17.910824 -5.909105 -19.400242 18.713938 -2.263650 -13.636721 -6.444396 -16.274691 -8.452574 14.177275 5.946382 -1.058599 8.049002 0.249448 3.615036 
-59.359310 50.503353 33.265747 5.121677 4.270056 30.949162 0.000000 0.000000 0.000000 11.318363 -2.365252 3.139611 13.808017 -9.104282 43.629829 -10.450842 3.203402 33.220562 2.367434 -15.591427 15.220749 -58.609901 9.618452 24.220020 -107.407196 11.330478 3.200380 11.718447 4.383023 20.629034 6.486672 9.943163 15.931056 57.543716 -24.889053 37.373646 105.476097 -15.236129 2.918702 -23.109468 5.634082 27.817657 -4.882516 17.447681 11.583400 17.251217 -5.127620 -16.920240 19.451548 -2.305380 -13.403084 -5.770242 -16.290239 -9.766464 11.234781 5.123902 -4.197968 2.551251 0.076510 4.552808 
-58.289024 48.921265 32.442608 5.246694 5.251466 32.074009 0.000000 0.000000 0.000000 11.918340 -2.761521 2.327271 14.422228 -9.219550 42.616135 -10.708714 2.866506 33.996281 1.413322 -16.560246 16.121569 -58.464481 9.188930 17.480822 -109.122368 9.703094 3.318496 6.963841 2.959473 20.782509 5.015521 9.796973 16.851486 54.459248 -19.499392 38.219677 106.107574 -15.554460 2.907097 -19.784193 5.313676 28.865477 -0.304378 19.310785 12.802707 12.875341 -3.517604 -14.194695 15.542695 -2.555065 -18.376818 -7.431272 -18.503294 -12.059818 17.267286 4.254151 -8.549056 -8.204620 -0.505007 6.797510 
-57.144478 47.239372 31.646399 3.944257 5.543561 33.750866 0.000000 0.000000 0.000000 12.684727 -2.134160 1.629111 16.273928 -8.767258 41.053703 -12.597452 2.932087 34.098175 0.238887 -19.669552 17.156153 -54.764664 7.431091 11.230619 -106.085365 7.500573 3.402924 6.835275 -1.570740 15.691414 2.801153 13.898410 17.975389 46.409828 -13.595408 36.006264 102.437889 -14.628427 2.901882 -20.966568 4.478482 26.490936 4.706399 21.718739 15.471770 8.335507 -1.141448 -12.846809 9.982193 -1.974189 -22.058367 -12.578057 -21.659481 -11.463088 31.974821 2.703379 -7.339167 -15.089376 -1.465566 10.996009 
-55.887058 45.751656 30.735678 1.628502 5.466554 35.819466 0.000000 0.000000 0.000000 13.645418 -1.157787 0.929749 16.884539 -6.992825 39.369678 -12.334415 4.205785 33.041111 -0.869736 -20.911774 18.473232 -52.758854 1.243909 8.283862 -94.561211 5.162866 3.343009 12.832965 -2.616089 5.480499 -0.026730 21.728359 19.468182 35.053513 -5.870628 29.935350 88.606430 -10.953475 2.891101 -24.369627 6.161749 15.752347 6.852386 24.879305 17.940117 9.789308 1.494576 -16.394482 4.016589 -0.910859 -25.279156 -13.534394 -23.170883 -11.566195 40.040291 1.316529 -8.538865 -18.283159 -2.470932 15.111650 
-54.493095 44.713959 29.675949 -0.176450 4.990211 38.295254 0.000000 0.000000 0.000000 13.906253 0.037918 -0.049199 15.480694 -5.645644 38.271633 -10.614038 5.341090 32.781017 -2.897940 -19.256035 18.501390 -52.205956 -7.525372 11.716050 -75.440750 2.259316 3.183290 22.663919 5.116094 -0.385358 -1.258913 22.640375 19.384953 35.597897 4.406706 18.281317 61.828648 -3.053148 2.887647 -16.091730 5.189550 15.088250 6.141026 27.312372 19.518400 16.029049 1.913821 -17.865189 -1.458501 0.357341 -29.096388 -13.035745 -24.311043 -11.878299 43.617405 0.721425 -10.253309 -18.768436 -3.145509 18.696226 
-52.642452 44.276783 28.245243 -0.911050 4.530680 40.084503 0.000000 0.000000 0.000000 12.940502 0.723340 -0.243846 14.707964 -3.696404 37.439438 -9.626655 5.140100 32.646397 -4.746943 -13.073203 17.254467 -57.442410 -10.209334 19.812187 -62.395535 -0.958406 3.149045 23.056995 11.828487 -2.281301 -1.747285 23.064272 17.949568 37.789932 3.680678 9.629182 49.648350 -0.150057 2.862282 -19.519297 -9.632008 7.272503 3.054005 26.557964 19.329397 27.601688 0.847929 -8.267955 -10.253351 2.377565 -26.178463 -11.560773 -26.778229 -13.076499 42.351822 0.910959 -11.378828 -15.971525 -3.072900 21.568687 
-50.250553 44.720749 26.498543 -1.203155 3.290292 40.585342 0.000000 0.000000 0.000000 11.792092 1.653818 -0.348011 12.798162 -1.076783 36.541653 -9.848339 3.872829 32.957348 -5.601892 -11.522903 15.530421 -57.031380 -0.420054 27.309328 -73.662750 3.368193 3.091183 21.438520 9.359673 -5.182296 -2.262755 25.000000 16.107935 31.804722 -7.518491 5.694689 63.445717 -1.718423 3.004800 -18.495491 -12.482293 -16.335215 1.863685 22.546621 19.024921 29.323540 -1.328404 10.542515 -13.973680 3.042266 -24.425308 -7.197209 -27.467489 -13.371819 32.780148 1.175442 -14.040662 -9.095260 -1.956107 23.960260 
-47.650379 45.899395 24.975592 -0.772088 2.265420 38.953880 0.000000 0.000000 0.000000 9.997499 2.173551 0.656592 11.241767 0.014501 36.478344 -8.103602 3.236582 31.998346 -5.265159 -12.705342 12.244445 -55.646656 14.811556 29.802462 -92.331245 9.791146 3.026639 14.559153 4.852137 3.542032 -0.041889 25.000000 12.671556 28.281532 -20.257774 9.545566 79.740913 -4.891922 3.101199 -14.999811 -2.975015 -8.474029 1.002449 20.372747 19.847122 28.260300 -5.193471 23.120119 -10.812920 2.045095 -21.287836 1.003419 -26.281189 -13.412321 10.372707 1.291912 -21.246464 5.348162 1.033070 22.178560 
-45.679424 47.237362 23.559986 -0.712892 0.087884 37.352425 0.000000 0.000000 0.000000 8.001933 3.336411 1.670255 10.309073 -0.082246 36.606377 -2.851377 4.690271 29.920675 -3.559111 -8.695827 9.326158 -56.094547 27.530270 29.651108 -111.184639 13.120131 3.141655 4.422333 4.290419 7.737060 1.857543 21.700895 9.428448 28.217037 -31.745913 15.258759 97.503639 -7.886602 3.241891 -18.573616 -4.760240 2.810214 5.610063 17.190689 19.708853 18.845701 -6.850608 19.330778 -12.335572 1.760665 -16.117847 7.634762 -21.433372 -13.216385 -3.383019 1.075049 -36.519871 13.602564 1.962924 16.536772 
